<svg xmlns="http://www.w3.org/2000/svg" width="105" height="118" viewBox="0 0 105 118" fill="none">
<g filter="url(#filter0_d_104_26)">
<path fill-rule="evenodd" clip-rule="evenodd" d="M90.1442 17.0725C90.1442 19.3216 88.3209 21.1449 86.0718 21.1449H18.0725C15.8233 21.1449 14 19.3216 14 17.0725C14 14.8233 15.8233 13 18.0725 13H86.0718C88.3209 13 90.1442 14.8233 90.1442 17.0725Z" fill="white"/>
<path fill-rule="evenodd" clip-rule="evenodd" d="M90.1442 98.0724C90.1442 100.322 88.321 102.145 86.0718 102.145H18.0724C15.8233 102.145 14 100.322 14 98.0724C14 95.8233 15.8233 94 18.0724 94H86.0718C88.3209 94 90.1442 95.8233 90.1442 98.0724Z" fill="white"/>
<path d="M48 17L20 56.1034L48 98" stroke="white" stroke-width="8"/>
<path d="M55 19L81 57.1379L55 98" stroke="white" stroke-width="8"/>
</g>
<defs>
<filter id="filter0_d_104_26" x="0" y="0" width="104.144" height="117.145" filterUnits="userSpaceOnUse" color-interpolation-filters="sRGB">
<feFlood flood-opacity="0" result="BackgroundImageFix"/>
<feColorMatrix in="SourceAlpha" type="matrix" values="0 0 0 0 0 0 0 0 0 0 0 0 0 0 0 0 0 0 127 0" result="hardAlpha"/>
<feOffset dy="1"/>
<feGaussianBlur stdDeviation="7"/>
<feComposite in2="hardAlpha" operator="out"/>
<feColorMatrix type="matrix" values="0 0 0 0 1 0 0 0 0 1 0 0 0 0 1 0 0 0 0.55 0"/>
<feBlend mode="normal" in2="BackgroundImageFix" result="effect1_dropShadow_104_26"/>
<feBlend mode="normal" in="SourceGraphic" in2="effect1_dropShadow_104_26" result="shape"/>
</filter>
</defs>
</svg>