<?xml version="1.0" standalone="no"?>
<!DOCTYPE svg PUBLIC "-//W3C//DTD SVG 20010904//EN"
 "http://www.w3.org/TR/2001/REC-SVG-20010904/DTD/svg10.dtd">
<svg version="1.0" xmlns="http://www.w3.org/2000/svg"
 width="3000.000000pt" height="2000.000000pt" viewBox="0 0 3000.000000 2000.000000"
 preserveAspectRatio="xMidYMid meet">

<g transform="translate(0.000000,2000.000000) scale(0.100000,-0.100000)"
fill="#000000" stroke="none">
<path d="M17595 16660 c-400 -22 -827 -89 -1183 -186 l-134 -36 -186 26 c-318
44 -427 51 -812 51 -295 0 -389 -4 -490 -18 -378 -54 -656 -138 -968 -293
l-184 -91 -156 49 c-678 212 -1329 321 -1927 321 -372 0 -618 -26 -920 -98
-985 -235 -1653 -881 -1939 -1875 -154 -533 -198 -1246 -116 -1870 73 -552
275 -1506 471 -2220 474 -1730 995 -2845 1563 -3342 174 -152 374 -264 563
-315 89 -24 115 -27 278 -27 157 0 191 3 265 22 158 43 332 128 459 226 l58
45 49 -51 c273 -280 803 -442 1392 -425 281 8 487 46 718 133 51 19 94 34 96
34 3 0 8 -105 12 -233 21 -726 60 -1196 127 -1532 38 -193 176 -609 259 -782
212 -443 546 -718 990 -814 93 -21 132 -23 340 -23 258 0 311 6 590 70 352 81
684 218 900 371 120 85 345 310 429 428 177 252 304 530 401 880 112 410 185
932 210 1510 6 138 16 304 23 369 l12 120 225 -3 c601 -6 1142 114 1573 349
152 82 322 194 432 283 113 92 266 252 323 341 169 258 181 541 33 769 -61 93
-146 168 -246 217 -117 57 -181 72 -336 77 -142 5 -164 3 -429 -46 -207 -38
-560 -80 -560 -66 0 2 34 64 76 137 835 1451 1406 3119 1520 4433 20 229 15
660 -10 820 -44 295 -123 524 -239 701 -120 182 -446 526 -661 699 -622 500
-1347 780 -2206 854 -172 15 -515 21 -685 11z m755 -374 c774 -92 1400 -351
1940 -804 124 -104 355 -341 456 -467 153 -193 223 -375 266 -695 19 -142 16
-578 -5 -780 -152 -1429 -825 -3220 -1755 -4671 -34 -53 -62 -101 -62 -106 0
-14 101 -58 175 -77 120 -30 235 -39 440 -33 223 6 350 21 630 74 147 28 217
36 310 37 118 1 122 0 190 -34 115 -57 162 -141 152 -268 -12 -159 -171 -347
-457 -541 -342 -232 -634 -343 -1077 -411 -366 -56 -764 -52 -993 10 -23 6
-44 10 -46 8 -2 -3 -20 -141 -39 -309 -81 -699 -192 -1542 -246 -1869 -91
-561 -227 -880 -483 -1135 -226 -225 -523 -372 -957 -474 -728 -172 -1260 -2
-1604 514 -112 168 -226 428 -264 605 -79 369 -130 1224 -131 2178 l0 343 -62
-52 c-362 -302 -855 -436 -1378 -374 -325 38 -552 111 -727 234 -216 152 -250
382 -79 538 105 96 228 144 561 218 232 52 425 111 493 151 71 42 118 89 245
248 136 171 137 159 -8 170 -167 12 -399 78 -560 158 l-59 31 -51 -55 c-264
-285 -585 -647 -867 -978 -291 -343 -426 -452 -648 -522 -63 -19 -97 -23 -205
-23 -148 0 -221 17 -355 85 -568 286 -1122 1338 -1619 3075 -231 810 -438
1751 -530 2415 -69 495 -45 1091 61 1560 286 1261 1209 1914 2653 1877 594
-16 1242 -138 1890 -358 l150 -51 90 56 c176 111 403 211 626 275 476 137
1071 146 1667 26 l164 -33 84 28 c294 100 772 190 1169 220 171 13 698 4 855
-14z"/>
<path d="M17633 15930 c-192 -10 -395 -32 -592 -66 -80 -13 -149 -24 -155 -24
-6 0 70 -42 169 -93 400 -206 706 -431 1028 -751 476 -475 889 -1128 1081
-1711 58 -175 64 -229 55 -486 -8 -226 -14 -284 -68 -651 -61 -415 -65 -641
-16 -1053 56 -477 58 -509 59 -755 1 -261 -7 -353 -51 -549 -35 -160 -83 -293
-164 -458 l-71 -142 28 -36 c15 -20 30 -32 34 -28 17 19 175 283 272 453 728
1277 1244 2744 1385 3937 22 186 25 673 5 803 -20 131 -59 266 -97 339 -66
126 -342 422 -545 584 -618 495 -1433 732 -2357 687z"/>
<path d="M14985 15783 c-470 -41 -890 -204 -1223 -475 -587 -478 -963 -1336
-1076 -2454 l-5 -51 75 39 c124 66 270 126 439 183 553 187 1020 154 1326 -94
183 -147 287 -340 353 -651 144 -682 173 -1312 81 -1800 -53 -281 -118 -474
-295 -875 -114 -259 -229 -567 -280 -748 -19 -68 -19 -68 1 -62 11 4 58 7 103
7 160 -1 354 -88 469 -211 59 -63 132 -176 162 -249 59 -146 57 -97 59 -1187
2 -612 7 -1078 14 -1200 40 -682 80 -1000 148 -1172 49 -124 143 -297 209
-385 121 -160 286 -270 480 -320 118 -30 366 -32 520 -4 244 44 478 117 650
204 380 190 554 479 655 1085 106 639 305 2273 320 2637 6 154 14 225 29 285
66 248 216 418 441 496 36 12 68 25 72 28 4 4 -40 67 -98 141 -169 216 -260
359 -360 565 -50 105 -156 305 -234 445 -403 726 -658 1318 -748 1740 -54 249
-67 509 -37 686 78 449 382 718 900 800 129 20 379 28 530 16 72 -6 131 -9
132 -9 7 7 -118 295 -187 432 -147 291 -335 578 -545 832 -107 129 -365 390
-490 495 -668 559 -1458 842 -2335 836 -118 -1 -233 -3 -255 -5z"/>
<path d="M11250 15754 c-121 -11 -348 -48 -460 -75 -397 -98 -744 -298 -970
-562 -313 -364 -484 -847 -531 -1502 -15 -202 -6 -648 16 -805 93 -679 295
-1607 526 -2415 221 -773 450 -1399 689 -1883 106 -217 158 -308 267 -474 255
-389 498 -572 713 -537 143 23 262 117 483 378 195 231 509 588 725 826 l192
210 -69 65 c-277 262 -476 627 -557 1023 -38 183 -43 444 -15 677 55 461 68
770 50 1205 -17 397 -17 840 -1 1005 108 1064 441 1919 968 2479 l74 79 -97
30 c-412 127 -798 209 -1203 258 -128 15 -687 28 -800 18z"/>
<path d="M18242 12820 c-212 -27 -390 -98 -487 -195 -65 -65 -119 -171 -141
-275 -22 -105 -14 -375 16 -515 94 -443 303 -933 716 -1680 97 -176 203 -378
236 -450 32 -71 65 -136 72 -144 12 -11 19 0 45 67 92 239 116 390 115 712 -1
220 -5 282 -43 610 -70 598 -68 746 15 1330 26 181 46 360 47 420 l2 105 -50
7 c-86 12 -466 17 -543 8z m162 -180 c54 -16 96 -60 96 -100 0 -76 -88 -183
-195 -236 -65 -32 -84 -37 -144 -36 -94 0 -173 36 -241 108 -44 46 -50 58 -50
95 0 36 6 48 39 80 93 87 345 133 495 89z"/>
<path d="M13760 12764 c-345 -39 -715 -172 -999 -358 l-93 -61 6 -105 c36
-613 26 -1060 -35 -1570 -48 -393 -2 -705 146 -1000 140 -278 379 -521 644
-655 149 -75 340 -126 483 -128 l80 -2 35 115 c44 147 172 493 233 635 26 61
78 180 115 265 123 283 194 529 232 800 24 176 24 645 0 855 -34 290 -105 688
-143 801 -34 103 -79 179 -144 244 -76 77 -140 113 -245 140 -74 19 -245 32
-315 24z m302 -219 c135 -28 248 -103 261 -172 14 -73 -61 -171 -172 -226 -58
-28 -75 -32 -151 -32 -75 0 -93 4 -153 32 -125 59 -217 178 -217 280 0 47 2
52 39 77 22 15 59 34 83 41 57 18 226 18 310 0z"/>
<path d="M18824 8441 c-119 -39 -170 -71 -209 -130 -38 -57 -65 -179 -65 -292
l0 -98 53 -19 c268 -100 928 -58 1341 85 118 41 274 117 405 198 96 59 246
173 238 181 -2 3 -65 -7 -140 -21 -681 -125 -1189 -89 -1472 105 l-41 28 -110
-37z"/>
<path d="M14425 8411 c-51 -23 -139 -116 -292 -306 -271 -337 -381 -399 -938
-525 -121 -27 -248 -60 -282 -72 l-63 -22 41 -24 c67 -40 189 -79 335 -109
127 -25 158 -28 364 -28 243 0 312 9 475 62 202 65 353 160 521 327 138 138
199 224 210 294 21 142 -91 343 -220 391 -83 31 -107 33 -151 12z"/>
</g>
</svg>
