<svg xmlns="http://www.w3.org/2000/svg" width="1200" height="648" viewBox="0 0 1200 648" version="1.1"><path d="M 465.585 205.107 C 455.147 206.629, 444.756 209.936, 434.500 215 C 387.044 238.433, 364.761 294.080, 377.641 357 C 382.554 381.002, 392.069 399.988, 406.498 414.583 C 422.442 430.710, 442.651 440.106, 467.524 442.955 C 522.430 449.245, 566.489 424.300, 579.446 379.589 C 580.851 374.742, 582 370.592, 582 370.366 C 582 370.140, 573.644 370.078, 563.430 370.228 L 544.860 370.500 543.164 375.513 C 537.355 392.682, 521.568 405.441, 501.027 409.569 C 489.186 411.948, 471.458 411.135, 460.833 407.726 C 442.956 401.989, 429.473 390.893, 422.114 375.863 C 416.691 364.787, 414.956 357.784, 414.282 344.256 L 413.722 333.011 499.611 332.756 L 585.500 332.500 585.196 321.034 C 583.950 274.021, 564.161 235.792, 530.627 215.616 C 515.160 206.310, 487.727 201.877, 465.585 205.107 M 602.299 205.336 C 602.581 206.071, 621.079 231.529, 643.406 261.909 C 665.733 292.289, 684 317.493, 684 317.918 C 684 318.344, 663.944 346.774, 639.431 381.096 L 594.861 443.500 618.134 443.769 C 639.307 444.014, 641.557 443.878, 643.075 442.269 C 643.992 441.296, 658.987 419.257, 676.398 393.293 C 693.808 367.329, 708.378 345.894, 708.776 345.659 C 709.174 345.424, 723.675 366.347, 741 392.154 C 758.325 417.961, 773.400 440.197, 774.500 441.566 L 776.500 444.057 801.221 443.778 L 825.942 443.500 780.374 380 C 755.312 345.075, 734.598 315.994, 734.344 315.375 C 734.090 314.756, 751.936 290.083, 774.002 260.547 C 796.068 231.011, 814.368 206.205, 814.668 205.423 C 815.130 204.218, 811.687 204, 792.168 204 L 769.123 204 739.152 246.052 L 709.181 288.104 706.733 284.802 C 705.387 282.986, 692.912 264.850, 679.011 244.500 C 665.109 224.150, 653.050 206.713, 652.213 205.750 C 650.840 204.173, 648.279 204, 626.238 204 C 606.245 204, 601.880 204.244, 602.299 205.336 M 466.500 238.409 C 452.560 241.115, 444.100 245.731, 433.478 256.424 C 427.568 262.374, 424.476 266.490, 421.736 272.058 C 417.790 280.076, 414 293.108, 414 298.660 L 414 302 479.975 302 L 545.950 302 545.402 298.750 C 541.948 278.270, 535.760 265.548, 523.923 254.589 C 508.991 240.765, 486.706 234.485, 466.500 238.409" stroke="none" fill="#fafafa" fill-rule="evenodd"/><path d="M 565.151 16.536 C 520.212 21.692, 482.179 34.048, 446.329 55.136 C 399.524 82.670, 358.670 123.524, 331.136 170.329 C 304.252 216.032, 291.019 266.719, 291.019 324 C 291.019 409.613, 321.191 482.221, 382.019 542.993 C 407.738 568.689, 433.179 587.056, 464.500 602.542 C 506.928 623.520, 549.103 633, 600 633 C 650.897 633, 693.072 623.520, 735.500 602.542 C 777.426 581.813, 812.166 553.538, 843.267 514.830 C 887.203 460.150, 908.981 396.907, 908.981 324 C 908.981 238.670, 878.816 165.840, 818.488 105.512 C 772.426 59.449, 716.704 29.887, 656.500 19.572 C 629.690 14.979, 590.170 13.665, 565.151 16.536 M 465.585 205.107 C 455.147 206.629, 444.756 209.936, 434.500 215 C 387.044 238.433, 364.761 294.080, 377.641 357 C 382.554 381.002, 392.069 399.988, 406.498 414.583 C 422.442 430.710, 442.651 440.106, 467.524 442.955 C 522.430 449.245, 566.489 424.300, 579.446 379.589 C 580.851 374.742, 582 370.592, 582 370.366 C 582 370.140, 573.644 370.078, 563.430 370.228 L 544.860 370.500 543.164 375.513 C 537.355 392.682, 521.568 405.441, 501.027 409.569 C 489.186 411.948, 471.458 411.135, 460.833 407.726 C 442.956 401.989, 429.473 390.893, 422.114 375.863 C 416.691 364.787, 414.956 357.784, 414.282 344.256 L 413.722 333.011 499.611 332.756 L 585.500 332.500 585.196 321.034 C 583.950 274.021, 564.161 235.792, 530.627 215.616 C 515.160 206.310, 487.727 201.877, 465.585 205.107 M 602.299 205.336 C 602.581 206.071, 621.079 231.529, 643.406 261.909 C 665.733 292.289, 684 317.493, 684 317.918 C 684 318.344, 663.944 346.774, 639.431 381.096 L 594.861 443.500 618.134 443.769 C 639.307 444.014, 641.557 443.878, 643.075 442.269 C 643.992 441.296, 658.987 419.257, 676.398 393.293 C 693.808 367.329, 708.378 345.894, 708.776 345.659 C 709.174 345.424, 723.675 366.347, 741 392.154 C 758.325 417.961, 773.400 440.197, 774.500 441.566 L 776.500 444.057 801.221 443.778 L 825.942 443.500 780.374 380 C 755.312 345.075, 734.598 315.994, 734.344 315.375 C 734.090 314.756, 751.936 290.083, 774.002 260.547 C 796.068 231.011, 814.368 206.205, 814.668 205.423 C 815.130 204.218, 811.687 204, 792.168 204 L 769.123 204 739.152 246.052 L 709.181 288.104 706.733 284.802 C 705.387 282.986, 692.912 264.850, 679.011 244.500 C 665.109 224.150, 653.050 206.713, 652.213 205.750 C 650.840 204.173, 648.279 204, 626.238 204 C 606.245 204, 601.880 204.244, 602.299 205.336 M 466.500 238.409 C 452.560 241.115, 444.100 245.731, 433.478 256.424 C 427.568 262.374, 424.476 266.490, 421.736 272.058 C 417.790 280.076, 414 293.108, 414 298.660 L 414 302 479.975 302 L 545.950 302 545.402 298.750 C 541.948 278.270, 535.760 265.548, 523.923 254.589 C 508.991 240.765, 486.706 234.485, 466.500 238.409" stroke="none" fill="#343434" fill-rule="evenodd"/></svg>