<svg xmlns="http://www.w3.org/2000/svg" width="225" height="225" viewBox="0 0 225 225" version="1.1"><path d="M 25 77 C 23.105 78.895, 23 80.333, 23 104.277 C 23 125.537, 23.247 129.908, 24.557 131.777 C 26.100 133.980, 26.350 134, 53 134 C 79.650 134, 79.900 133.980, 81.443 131.777 C 82.753 129.908, 83 125.537, 83 104.277 C 83 80.333, 82.895 78.895, 81 77 C 79.103 75.103, 77.667 75, 53 75 C 28.333 75, 26.897 75.103, 25 77 M 121.441 88.292 C 121.169 89.003, 121.070 96.540, 121.223 105.042 L 121.500 120.500 124.250 120.816 L 127 121.133 127 104.066 L 127 87 124.469 87 C 123.076 87, 121.714 87.581, 121.441 88.292 M 185.441 88.292 C 185.169 89.003, 185.070 96.540, 185.223 105.042 L 185.500 120.500 188.250 120.816 C 190.686 121.097, 191 120.804, 191 118.258 C 191 116.676, 191.602 114.559, 192.338 113.552 C 193.580 111.854, 193.916 112.056, 197.008 116.361 C 199.825 120.284, 200.853 121, 203.670 121 C 205.501 121, 207 120.856, 207 120.680 C 207 120.505, 204.791 117.506, 202.091 114.017 L 197.181 107.674 201.091 102.496 C 203.241 99.648, 205 97.022, 205 96.659 C 205 96.297, 203.708 96, 202.129 96 C 199.714 96, 198.605 96.992, 195.138 102.250 L 191.018 108.500 191.009 97.750 L 191 87 188.469 87 C 187.076 87, 185.714 87.581, 185.441 88.292 M 45 92.622 C 40.875 94.446, 37.119 96.079, 36.653 96.251 C 35.926 96.520, 39.662 105, 40.508 105 C 40.676 105, 43.809 103.656, 47.470 102.013 L 54.127 99.027 53.435 94.263 C 53.055 91.644, 52.689 89.456, 52.622 89.403 C 52.555 89.350, 49.125 90.798, 45 92.622 M 96.223 90.557 C 94.100 92.043, 94 92.765, 94 106.557 L 94 121 97 121 L 100 121 100 114.500 L 100 108 105.383 108 C 110.318 108, 110.806 107.794, 111.240 105.524 C 111.501 104.161, 111.478 102.811, 111.190 102.524 C 110.902 102.236, 108.238 102, 105.270 102 L 99.873 102 100.187 98.750 L 100.500 95.500 107.750 95.206 L 115 94.912 115 91.956 L 115 89 106.723 89 C 100.849 89, 97.799 89.452, 96.223 90.557 M 142.167 95.906 C 134.127 96.670, 133 98.049, 133 107.126 C 133 115.344, 134.152 118.656, 137.547 120.203 C 139.697 121.183, 140.730 121.062, 143.661 119.483 C 146.961 117.706, 147.249 117.694, 148.144 119.292 C 148.669 120.231, 149.977 121, 151.050 121 C 152.883 121, 153 120.223, 153 108 C 153 93.169, 154.411 94.744, 142.167 95.906 M 162.635 97.073 C 157.440 101.158, 160.295 110, 166.809 110 C 170.498 110, 173.510 112.229, 172.694 114.355 C 171.881 116.474, 166.162 116.587, 165.362 114.500 C 165.029 113.634, 163.535 113, 161.826 113 C 159.222 113, 158.947 113.271, 159.540 115.250 C 160.555 118.636, 162.259 120.006, 166.265 120.656 C 173.714 121.864, 178 119.099, 178 113.084 C 178 108.433, 175.963 106.458, 170.193 105.511 C 166.527 104.910, 165.932 104.485, 166.193 102.653 C 166.561 100.071, 170.856 99.094, 172.444 101.231 C 173.025 102.013, 174.512 102.914, 175.750 103.233 C 177.606 103.711, 178 103.404, 178 101.479 C 178 98.196, 173.560 95, 169 95 C 166.740 95, 164.231 95.817, 162.635 97.073 M 139.667 101.667 C 139.300 102.033, 139 104.678, 139 107.544 C 139 113.856, 140.515 115.634, 144.388 113.869 C 146.770 112.784, 147 112.165, 147 106.839 L 147 101 143.667 101 C 141.833 101, 140.033 101.300, 139.667 101.667 M 46.796 104.753 C 41.451 107.327, 41.183 107.622, 42.542 109.436 C 43.962 111.332, 44.113 111.314, 49.870 108.562 C 54.526 106.337, 55.646 105.363, 55.257 103.876 C 54.608 101.391, 53.549 101.501, 46.796 104.753 M 50.656 110.614 C 45.999 113.036, 45.878 113.208, 47.528 115.031 C 50.326 118.122, 57.428 120.354, 62.250 119.658 C 69.575 118.599, 74 116.993, 74 115.392 C 74 114.170, 73.155 114.004, 69.632 114.533 C 64.708 115.271, 59.794 113.353, 57.994 109.990 C 56.674 107.523, 56.580 107.531, 50.656 110.614" stroke="none" fill="#f6f9fa" fill-rule="evenodd"/><path d="M -0 112.504 L -0 225.009 112.750 224.754 L 225.500 224.500 225.754 112.250 L 226.009 0 113.004 0 L 0 0 -0 112.504 M 0.483 113 C 0.483 174.875, 0.603 200.188, 0.750 169.250 C 0.897 138.313, 0.897 87.688, 0.750 56.750 C 0.603 25.813, 0.483 51.125, 0.483 113 M 25 77 C 23.105 78.895, 23 80.333, 23 104.277 C 23 125.537, 23.247 129.908, 24.557 131.777 C 26.100 133.980, 26.350 134, 53 134 C 79.650 134, 79.900 133.980, 81.443 131.777 C 82.753 129.908, 83 125.537, 83 104.277 C 83 80.333, 82.895 78.895, 81 77 C 79.103 75.103, 77.667 75, 53 75 C 28.333 75, 26.897 75.103, 25 77 M 121.441 88.292 C 121.169 89.003, 121.070 96.540, 121.223 105.042 L 121.500 120.500 124.250 120.816 L 127 121.133 127 104.066 L 127 87 124.469 87 C 123.076 87, 121.714 87.581, 121.441 88.292 M 185.441 88.292 C 185.169 89.003, 185.070 96.540, 185.223 105.042 L 185.500 120.500 188.250 120.816 C 190.686 121.097, 191 120.804, 191 118.258 C 191 116.676, 191.602 114.559, 192.338 113.552 C 193.580 111.854, 193.916 112.056, 197.008 116.361 C 199.825 120.284, 200.853 121, 203.670 121 C 205.501 121, 207 120.856, 207 120.680 C 207 120.505, 204.791 117.506, 202.091 114.017 L 197.181 107.674 201.091 102.496 C 203.241 99.648, 205 97.022, 205 96.659 C 205 96.297, 203.708 96, 202.129 96 C 199.714 96, 198.605 96.992, 195.138 102.250 L 191.018 108.500 191.009 97.750 L 191 87 188.469 87 C 187.076 87, 185.714 87.581, 185.441 88.292 M 45 92.622 C 40.875 94.446, 37.119 96.079, 36.653 96.251 C 35.926 96.520, 39.662 105, 40.508 105 C 40.676 105, 43.809 103.656, 47.470 102.013 L 54.127 99.027 53.435 94.263 C 53.055 91.644, 52.689 89.456, 52.622 89.403 C 52.555 89.350, 49.125 90.798, 45 92.622 M 96.223 90.557 C 94.100 92.043, 94 92.765, 94 106.557 L 94 121 97 121 L 100 121 100 114.500 L 100 108 105.383 108 C 110.318 108, 110.806 107.794, 111.240 105.524 C 111.501 104.161, 111.478 102.811, 111.190 102.524 C 110.902 102.236, 108.238 102, 105.270 102 L 99.873 102 100.187 98.750 L 100.500 95.500 107.750 95.206 L 115 94.912 115 91.956 L 115 89 106.723 89 C 100.849 89, 97.799 89.452, 96.223 90.557 M 142.167 95.906 C 134.127 96.670, 133 98.049, 133 107.126 C 133 115.344, 134.152 118.656, 137.547 120.203 C 139.697 121.183, 140.730 121.062, 143.661 119.483 C 146.961 117.706, 147.249 117.694, 148.144 119.292 C 148.669 120.231, 149.977 121, 151.050 121 C 152.883 121, 153 120.223, 153 108 C 153 93.169, 154.411 94.744, 142.167 95.906 M 162.635 97.073 C 157.440 101.158, 160.295 110, 166.809 110 C 170.498 110, 173.510 112.229, 172.694 114.355 C 171.881 116.474, 166.162 116.587, 165.362 114.500 C 165.029 113.634, 163.535 113, 161.826 113 C 159.222 113, 158.947 113.271, 159.540 115.250 C 160.555 118.636, 162.259 120.006, 166.265 120.656 C 173.714 121.864, 178 119.099, 178 113.084 C 178 108.433, 175.963 106.458, 170.193 105.511 C 166.527 104.910, 165.932 104.485, 166.193 102.653 C 166.561 100.071, 170.856 99.094, 172.444 101.231 C 173.025 102.013, 174.512 102.914, 175.750 103.233 C 177.606 103.711, 178 103.404, 178 101.479 C 178 98.196, 173.560 95, 169 95 C 166.740 95, 164.231 95.817, 162.635 97.073 M 139.667 101.667 C 139.300 102.033, 139 104.678, 139 107.544 C 139 113.856, 140.515 115.634, 144.388 113.869 C 146.770 112.784, 147 112.165, 147 106.839 L 147 101 143.667 101 C 141.833 101, 140.033 101.300, 139.667 101.667 M 46.796 104.753 C 41.451 107.327, 41.183 107.622, 42.542 109.436 C 43.962 111.332, 44.113 111.314, 49.870 108.562 C 54.526 106.337, 55.646 105.363, 55.257 103.876 C 54.608 101.391, 53.549 101.501, 46.796 104.753 M 50.656 110.614 C 45.999 113.036, 45.878 113.208, 47.528 115.031 C 50.326 118.122, 57.428 120.354, 62.250 119.658 C 69.575 118.599, 74 116.993, 74 115.392 C 74 114.170, 73.155 114.004, 69.632 114.533 C 64.708 115.271, 59.794 113.353, 57.994 109.990 C 56.674 107.523, 56.580 107.531, 50.656 110.614" stroke="none" fill="#3babc3" fill-rule="evenodd"/></svg>