<svg xmlns="http://www.w3.org/2000/svg" width="300" height="300" viewBox="0 0 300 300" version="1.1"><path d="M 150.018 62.650 C 150.007 63.994, 146.882 67.930, 141.683 73.150 C 127.887 87.001, 119.336 101.859, 114.262 120.794 C 111.980 129.311, 111.652 132.521, 111.591 147 C 111.522 163.137, 111.593 163.709, 114.802 173 C 119.708 187.201, 125.848 196.806, 137.805 208.979 L 148.111 219.471 149.258 229.736 C 150.215 238.299, 150.688 240, 152.112 240 C 153.456 240, 154.071 238.457, 155.002 232.750 C 157.365 218.261, 157.498 217.946, 163.756 212.043 C 192.808 184.638, 199.414 145.340, 181.519 106.378 C 177.347 97.294, 171.541 88.761, 162.716 78.747 C 158.868 74.380, 154.441 68.488, 152.878 65.653 C 150.880 62.030, 150.031 61.138, 150.018 62.650 M 151.754 132.648 C 151.344 133.279, 150.710 147.053, 150.346 163.257 C 149.854 185.167, 150.006 194.353, 150.939 199.096 C 152.116 205.076, 154.685 211.648, 155.520 210.813 C 155.980 210.354, 154.121 155.259, 153.182 141.500 C 152.807 136, 152.164 132.017, 151.754 132.648" stroke="none" fill="#f8faf9" fill-rule="evenodd"/><path d="M 130 0.681 C 105.134 4.741, 85.046 12.480, 65.248 25.626 C 53.211 33.619, 33.281 53.673, 25.125 66 C 14.124 82.627, 6.695 100.251, 2.364 120 C 0.867 126.828, 0.500 132.729, 0.500 150 C 0.500 173.406, 1.397 179.828, 7.112 197.335 C 14.461 219.844, 25.787 237.915, 43.934 256.079 C 65.973 278.140, 89.359 290.916, 120 297.636 C 132.231 300.318, 167.750 300.321, 180 297.640 C 199.414 293.392, 217.367 285.805, 234.115 274.772 C 246.310 266.738, 266.387 246.780, 274.374 234.752 C 285.977 217.279, 294.314 197.166, 297.555 178.836 C 298.462 173.701, 299.609 168.719, 300.102 167.764 C 301.374 165.303, 301.277 130.711, 300 131.500 C 299.435 131.849, 299 131.032, 299 129.624 C 299 125.774, 296.230 113.360, 293.393 104.500 C 276.261 50.984, 230.265 10.983, 175.074 1.602 C 166.325 0.115, 137.120 -0.482, 130 0.681 M 150.018 62.650 C 150.007 63.994, 146.882 67.930, 141.683 73.150 C 127.887 87.001, 119.336 101.859, 114.262 120.794 C 111.980 129.311, 111.652 132.521, 111.591 147 C 111.522 163.137, 111.593 163.709, 114.802 173 C 119.708 187.201, 125.848 196.806, 137.805 208.979 L 148.111 219.471 149.258 229.736 C 150.215 238.299, 150.688 240, 152.112 240 C 153.456 240, 154.071 238.457, 155.002 232.750 C 157.365 218.261, 157.498 217.946, 163.756 212.043 C 192.808 184.638, 199.414 145.340, 181.519 106.378 C 177.347 97.294, 171.541 88.761, 162.716 78.747 C 158.868 74.380, 154.441 68.488, 152.878 65.653 C 150.880 62.030, 150.031 61.138, 150.018 62.650 M 0.415 150 C 0.415 160.175, 0.564 164.338, 0.745 159.250 C 0.927 154.162, 0.927 145.837, 0.745 140.750 C 0.564 135.662, 0.415 139.825, 0.415 150 M 151.754 132.648 C 151.344 133.279, 150.710 147.053, 150.346 163.257 C 149.854 185.167, 150.006 194.353, 150.939 199.096 C 152.116 205.076, 154.685 211.648, 155.520 210.813 C 155.980 210.354, 154.121 155.259, 153.182 141.500 C 152.807 136, 152.164 132.017, 151.754 132.648" stroke="none" fill="#14ac54" fill-rule="evenodd"/></svg>