<svg xmlns="http://www.w3.org/2000/svg" width="300" height="292" viewBox="0 0 300 292" version="1.1"><path d="M 0 146.003 L 0 292.006 150.250 291.753 L 300.500 291.500 300.753 145.750 L 301.007 0 150.503 0 L 0 0 0 146.003 M 0.487 146.500 C 0.487 226.800, 0.605 259.798, 0.750 219.828 C 0.895 179.859, 0.895 114.159, 0.750 73.828 C 0.605 33.498, 0.487 66.200, 0.487 146.500 M 13.123 13.352 C 12.274 14.375, 12.046 48.862, 12.239 147.115 L 12.500 279.500 149.750 279.755 L 287 280.011 287 146.033 L 287 12.056 150.634 12.014 C 35.930 11.979, 14.086 12.192, 13.123 13.352 M 58.501 69.999 C 58.161 70.548, 65.392 85.802, 74.568 103.897 L 91.253 136.796 87.238 144.148 C 78.236 160.634, 57 201.907, 57 202.916 C 57 203.632, 60.919 204, 68.536 204 L 80.072 204 85.129 193.250 C 87.910 187.338, 93.126 175.975, 96.720 168 C 100.313 160.025, 103.636 153.083, 104.104 152.573 C 104.595 152.038, 105.974 153.938, 107.370 157.073 C 110.236 163.510, 127.606 199.840, 128.850 202 C 129.974 203.952, 154 204.797, 154 202.884 C 154 201.818, 143.259 180.619, 126.364 148.342 C 122.864 141.655, 120 135.433, 120 134.516 C 120 133.598, 122.306 128.494, 125.123 123.174 C 137.448 99.902, 152 71.189, 152 70.141 C 152 69.355, 148.573 69, 140.994 69 L 129.987 69 124.423 80.750 C 121.362 87.213, 116.132 98.462, 112.799 105.750 C 109.466 113.037, 106.461 118.986, 106.120 118.970 C 105.779 118.953, 100.578 108.491, 94.563 95.720 C 88.547 82.949, 82.965 71.713, 82.158 70.750 C 80.927 69.282, 78.951 69, 69.904 69 C 63.802 69, 58.850 69.434, 58.501 69.999 M 218.667 69.667 C 218.300 70.033, 218 77.618, 218 86.521 L 218 102.709 208.157 103.252 C 179.892 104.809, 162.066 124.873, 162.015 155.188 C 161.970 181.454, 174.786 199.472, 196.781 204.065 C 207.778 206.362, 227.654 203.961, 238 199.086 L 240.500 197.908 240.229 134.704 C 240.080 99.942, 239.756 70.938, 239.510 70.250 C 239.032 68.913, 219.954 68.379, 218.667 69.667 M 206.500 121.638 C 197.166 123.934, 192.247 127.606, 188.440 135.119 C 181.343 149.124, 183.559 170.542, 193.061 179.775 C 198.290 184.856, 209.166 187.408, 215.435 185.025 L 218 184.050 218 153.584 C 218 136.828, 217.620 122.883, 217.155 122.596 C 215.780 121.746, 208.663 121.107, 206.500 121.638" stroke="none" fill="#f72ec0" fill-rule="evenodd"/><path d="M 13.123 13.352 C 12.274 14.375, 12.046 48.862, 12.239 147.115 L 12.500 279.500 149.750 279.755 L 287 280.011 287 146.033 L 287 12.056 150.634 12.014 C 35.930 11.979, 14.086 12.192, 13.123 13.352 M 58.501 69.999 C 58.161 70.548, 65.392 85.802, 74.568 103.897 L 91.253 136.796 87.238 144.148 C 78.236 160.634, 57 201.907, 57 202.916 C 57 203.632, 60.919 204, 68.536 204 L 80.072 204 85.129 193.250 C 87.910 187.338, 93.126 175.975, 96.720 168 C 100.313 160.025, 103.636 153.083, 104.104 152.573 C 104.595 152.038, 105.974 153.938, 107.370 157.073 C 110.236 163.510, 127.606 199.840, 128.850 202 C 129.974 203.952, 154 204.797, 154 202.884 C 154 201.818, 143.259 180.619, 126.364 148.342 C 122.864 141.655, 120 135.433, 120 134.516 C 120 133.598, 122.306 128.494, 125.123 123.174 C 137.448 99.902, 152 71.189, 152 70.141 C 152 69.355, 148.573 69, 140.994 69 L 129.987 69 124.423 80.750 C 121.362 87.213, 116.132 98.462, 112.799 105.750 C 109.466 113.037, 106.461 118.986, 106.120 118.970 C 105.779 118.953, 100.578 108.491, 94.563 95.720 C 88.547 82.949, 82.965 71.713, 82.158 70.750 C 80.927 69.282, 78.951 69, 69.904 69 C 63.802 69, 58.850 69.434, 58.501 69.999 M 218.667 69.667 C 218.300 70.033, 218 77.618, 218 86.521 L 218 102.709 208.157 103.252 C 179.892 104.809, 162.066 124.873, 162.015 155.188 C 161.970 181.454, 174.786 199.472, 196.781 204.065 C 207.778 206.362, 227.654 203.961, 238 199.086 L 240.500 197.908 240.229 134.704 C 240.080 99.942, 239.756 70.938, 239.510 70.250 C 239.032 68.913, 219.954 68.379, 218.667 69.667 M 206.500 121.638 C 197.166 123.934, 192.247 127.606, 188.440 135.119 C 181.343 149.124, 183.559 170.542, 193.061 179.775 C 198.290 184.856, 209.166 187.408, 215.435 185.025 L 218 184.050 218 153.584 C 218 136.828, 217.620 122.883, 217.155 122.596 C 215.780 121.746, 208.663 121.107, 206.500 121.638" stroke="none" fill="#31041f" fill-rule="evenodd"/></svg>