<svg xmlns="http://www.w3.org/2000/svg" width="550" height="550" viewBox="0 0 550 550" version="1.1"><path d="M 249 25.958 C 235.804 26.871, 221.750 29.607, 207.453 34.044 C 201.979 35.743, 194.800 37.940, 191.500 38.925 C 179.991 42.363, 154.869 54.241, 145 60.912 C 141.975 62.956, 138.798 64.891, 137.941 65.210 C 133.398 66.902, 109.823 86.167, 98.427 97.500 C 87.053 108.811, 66.935 133.308, 65.205 137.953 C 64.889 138.804, 62.950 141.975, 60.899 145 C 56.506 151.476, 42.882 179.308, 40.584 186.500 C 39.705 189.250, 37.668 195.550, 36.056 200.500 C 27.211 227.675, 25.690 238.578, 25.661 275 C 25.640 302.504, 25.856 306.630, 27.867 317 C 30.333 329.716, 32.933 339.902, 36.417 350.500 C 37.683 354.350, 39.511 359.975, 40.481 363 C 43.113 371.213, 57.173 399.210, 63.946 409.724 C 94.968 457.884, 140.272 493.538, 193 511.289 C 218.236 519.785, 218.877 519.921, 250.500 523.504 C 271.757 525.912, 288.857 525.308, 319.703 521.059 C 337.163 518.654, 367.504 508.671, 385.771 499.322 C 403.703 490.144, 424.429 476.941, 429.500 471.466 C 430.050 470.872, 432.300 469.099, 434.500 467.526 C 440.186 463.462, 462.333 441.449, 466.723 435.500 C 468.752 432.750, 472.232 428.436, 474.456 425.913 C 478.744 421.050, 489.367 404.574, 494.693 394.525 C 507.934 369.546, 518.210 340.383, 521.059 319.703 C 525.308 288.857, 525.912 271.757, 523.504 250.500 C 519.894 218.639, 519.421 216.474, 510.524 191 C 502.299 167.453, 489.639 143.728, 475.500 125.363 C 472.750 121.792, 469.287 117.211, 467.804 115.185 C 464.856 111.154, 448.431 94.178, 440.494 86.957 C 433.472 80.569, 420.690 71.007, 409.785 63.984 C 399.218 57.179, 371.231 43.119, 363 40.481 C 359.975 39.511, 354.350 37.683, 350.500 36.417 C 326.268 28.450, 312.025 26.140, 283.823 25.604 C 270.995 25.361, 255.325 25.520, 249 25.958 M 241.667 124.667 C 241.300 125.033, 241 143.536, 241 165.783 L 241 206.233 238.750 205.502 C 234.379 204.080, 206.738 203.728, 199.500 205.001 C 162.233 211.556, 138.640 232.499, 128.726 267.825 C 126.860 274.474, 126.575 278.040, 126.597 294.500 C 126.619 310.944, 126.918 314.569, 128.820 321.446 C 135.573 345.855, 151.733 363.976, 173.953 372.054 C 194.431 379.499, 214.419 381.811, 243.074 380.050 C 258.078 379.128, 287.247 375.266, 293.250 373.407 C 294.904 372.895, 295 366.067, 295 248.433 L 295 124 268.667 124 C 254.183 124, 242.033 124.300, 241.667 124.667 M 327 152.500 L 327 180 354 180 L 381 180 381 152.500 L 381 125 354 125 L 327 125 327 152.500 M 326.999 267.234 C 326.999 329.440, 325.982 359.139, 323.431 371.413 C 318.020 397.455, 307.124 412.013, 284.255 423.754 C 279.170 426.364, 275.007 428.805, 275.005 429.177 C 275.002 429.550, 277.587 431.071, 280.750 432.558 C 283.913 434.045, 294.963 439.279, 305.306 444.188 L 324.111 453.114 331.651 449.047 C 343.306 442.760, 353.925 434, 360.402 425.328 C 367.105 416.354, 369.394 412.104, 372.689 402.519 C 379.998 381.253, 381.174 362.519, 380.787 273.500 L 380.500 207.500 353.750 207.234 L 327 206.967 326.999 267.234 M 214 248.035 C 197.007 251.053, 187.045 260.543, 182.469 278.071 C 180.174 286.861, 180.898 304.039, 183.919 312.500 C 190.724 331.559, 208.307 339.648, 235.761 336.351 L 241.021 335.719 240.761 292.609 L 240.500 249.500 235 248.346 C 228.640 247.012, 220.440 246.891, 214 248.035" stroke="none" fill="#092e20" fill-rule="evenodd"/><path d="M 241.667 124.667 C 241.300 125.033, 241 143.536, 241 165.783 L 241 206.233 238.750 205.502 C 234.379 204.080, 206.738 203.728, 199.500 205.001 C 162.233 211.556, 138.640 232.499, 128.726 267.825 C 126.860 274.474, 126.575 278.040, 126.597 294.500 C 126.619 310.944, 126.918 314.569, 128.820 321.446 C 135.573 345.855, 151.733 363.976, 173.953 372.054 C 194.431 379.499, 214.419 381.811, 243.074 380.050 C 258.078 379.128, 287.247 375.266, 293.250 373.407 C 294.904 372.895, 295 366.067, 295 248.433 L 295 124 268.667 124 C 254.183 124, 242.033 124.300, 241.667 124.667 M 327 152.500 L 327 180 354 180 L 381 180 381 152.500 L 381 125 354 125 L 327 125 327 152.500 M 326.999 267.234 C 326.999 329.440, 325.982 359.139, 323.431 371.413 C 318.020 397.455, 307.124 412.013, 284.255 423.754 C 279.170 426.364, 275.007 428.805, 275.005 429.177 C 275.002 429.550, 277.587 431.071, 280.750 432.558 C 283.913 434.045, 294.963 439.279, 305.306 444.188 L 324.111 453.114 331.651 449.047 C 343.306 442.760, 353.925 434, 360.402 425.328 C 367.105 416.354, 369.394 412.104, 372.689 402.519 C 379.998 381.253, 381.174 362.519, 380.787 273.500 L 380.500 207.500 353.750 207.234 L 327 206.967 326.999 267.234 M 214 248.035 C 197.007 251.053, 187.045 260.543, 182.469 278.071 C 180.174 286.861, 180.898 304.039, 183.919 312.500 C 190.724 331.559, 208.307 339.648, 235.761 336.351 L 241.021 335.719 240.761 292.609 L 240.500 249.500 235 248.346 C 228.640 247.012, 220.440 246.891, 214 248.035" stroke="none" fill="#f8f8f8" fill-rule="evenodd"/></svg>