<svg xmlns="http://www.w3.org/2000/svg" width="300" height="300" viewBox="0 0 300 300" version="1.1"><path d="M 90 150 L 90 210 100 210 L 110 210 110 163.441 C 110 134.130, 110.354 117.101, 110.955 117.472 C 111.480 117.796, 126.421 136.836, 144.158 159.781 C 161.895 182.726, 181.602 207.962, 187.953 215.859 C 194.304 223.757, 200.032 230.888, 200.682 231.707 C 201.689 232.976, 202.910 232.351, 208.932 227.485 C 212.819 224.345, 215.996 221.488, 215.991 221.137 C 215.979 220.248, 190.635 187.009, 150 134.590 L 115.500 90.085 102.750 90.042 L 90 90 90 150 M 192 113.431 L 192 136.863 201.502 137.181 L 211.004 137.500 211.002 130.410 C 211.001 126.510, 211.296 115.823, 211.657 106.660 L 212.314 90 202.157 90 L 192 90 192 113.431" stroke="none" fill="#e5e5e5" fill-rule="evenodd"/><path d="M 126 1.433 C 63.140 12.673, 16.017 57.882, 2.356 120.053 C -0.318 132.225, -0.316 167.771, 2.360 180 C 9.023 210.450, 21.944 234.102, 43.921 256.079 C 65.898 278.056, 89.550 290.977, 120 297.640 C 132.229 300.316, 167.775 300.318, 179.947 297.644 C 233.321 285.916, 275.653 248.352, 292.434 197.825 C 295.941 187.268, 299 174.090, 299 169.542 C 299 168.144, 299.450 167, 300 167 C 300.631 167, 300.994 160.260, 300.985 148.750 C 300.974 136.598, 300.645 131.001, 300 132 C 299.247 133.166, 299.027 132.878, 299.015 130.708 C 298.989 125.903, 296.002 112.917, 292.495 102.356 C 285.071 79.999, 273.437 61.368, 256.034 43.966 C 234.736 22.668, 209.887 9.107, 180 2.472 C 169.810 0.210, 136.431 -0.432, 126 1.433 M 90 150 L 90 210 100 210 L 110 210 110 163.441 C 110 134.130, 110.354 117.101, 110.955 117.472 C 111.480 117.796, 126.421 136.836, 144.158 159.781 C 161.895 182.726, 181.602 207.962, 187.953 215.859 C 194.304 223.757, 200.032 230.888, 200.682 231.707 C 201.689 232.976, 202.910 232.351, 208.932 227.485 C 212.819 224.345, 215.996 221.488, 215.991 221.137 C 215.979 220.248, 190.635 187.009, 150 134.590 L 115.500 90.085 102.750 90.042 L 90 90 90 150 M 192 113.431 L 192 136.863 201.502 137.181 L 211.004 137.500 211.002 130.410 C 211.001 126.510, 211.296 115.823, 211.657 106.660 L 212.314 90 202.157 90 L 192 90 192 113.431 M 0.415 150 C 0.415 160.175, 0.564 164.338, 0.745 159.250 C 0.927 154.162, 0.927 145.837, 0.745 140.750 C 0.564 135.662, 0.415 139.825, 0.415 150" stroke="none" fill="#060606" fill-rule="evenodd"/></svg>