<svg xmlns="http://www.w3.org/2000/svg" width="800" height="600" viewBox="0 0 800 600" version="1.1"><path d="M 500.200 117.200 C 499.302 118.098, 499 129.800, 499 163.700 C 499 201.627, 498.775 209, 497.615 209 C 496.853 209, 492.691 206.978, 488.365 204.507 C 484.039 202.037, 479.519 200.012, 478.321 200.007 C 474.770 199.995, 415.410 234.806, 414.107 237.664 C 412.525 241.136, 412.578 305.981, 414.166 309.465 C 415.597 312.606, 474.414 347, 478.354 347 C 480.892 347, 536.553 315.506, 540.750 311.695 L 543 309.651 543 223.877 L 543 138.102 539.750 135.705 C 534.065 131.512, 505.430 116, 503.375 116 C 502.289 116, 500.860 116.540, 500.200 117.200 M 133.473 215.030 C 116.988 224.454, 102.713 233.077, 101.750 234.193 C 100.137 236.063, 100 239.892, 100 283.076 C 100 328.747, 100.050 329.956, 101.980 330.989 C 103.643 331.879, 106.919 330.354, 122.478 321.446 C 132.663 315.614, 141.672 309.878, 142.498 308.699 C 143.726 306.946, 144 302.439, 144 283.969 C 144 267.409, 144.334 260.960, 145.250 259.802 C 147.163 257.382, 162.178 249, 164.598 249 C 167.426 249, 182.655 257.669, 184.530 260.346 C 185.718 262.043, 186 266.786, 186 285.112 C 186 305.270, 186.194 308, 187.750 309.779 C 188.713 310.879, 197.549 316.312, 207.387 321.852 C 226.245 332.471, 228.215 332.993, 229.531 327.721 C 229.836 326.500, 229.954 305.375, 229.793 280.777 C 229.510 237.575, 229.432 235.987, 227.500 234.099 C 225.045 231.698, 168.652 199.202, 165.622 198.441 C 164.037 198.044, 155.294 202.555, 133.473 215.030 M 604 216.110 C 587.775 225.495, 573.712 233.880, 572.750 234.742 C 571.145 236.180, 571 239.277, 571 272.073 C 571 291.743, 571.272 308.545, 571.604 309.411 C 572.276 311.162, 632.678 346.004, 635.021 345.993 C 637.217 345.982, 673.155 325.765, 674.319 323.886 C 674.868 322.998, 675.057 321.592, 674.739 320.761 C 674.420 319.930, 661.109 311.747, 645.160 302.575 C 629.211 293.403, 615.660 285.295, 615.047 284.556 C 614.332 283.695, 614.034 279.147, 614.216 271.879 L 614.500 260.544 620.500 256.948 C 623.800 254.970, 628.413 252.290, 630.750 250.992 L 635 248.632 639.250 250.992 C 641.587 252.290, 646.200 254.969, 649.500 256.945 L 655.500 260.539 656 270.691 C 656.275 276.274, 656.787 281.127, 657.137 281.475 C 657.487 281.823, 658.612 282.166, 659.637 282.238 C 661.911 282.398, 695.804 262.747, 698.250 259.851 C 699.669 258.171, 700 255.833, 700 247.500 C 700 239.156, 699.671 236.837, 698.250 235.178 C 695.843 232.366, 637.880 198.994, 635.454 199.023 C 634.379 199.036, 620.225 206.725, 604 216.110 M 467.221 255.688 L 457.942 261.219 458.221 273.721 L 458.500 286.223 467.826 291.611 C 472.955 294.575, 477.650 297, 478.261 297 C 478.871 297, 483.787 294.477, 489.185 291.394 L 499 285.788 499 273.500 L 499 261.211 489.100 255.605 C 483.655 252.522, 478.592 250.035, 477.850 250.078 C 477.107 250.122, 472.324 252.646, 467.221 255.688" stroke="none" fill="#343434" fill-rule="evenodd"/><path d="M 318 200.293 C 305.038 207.189, 260.109 233.680, 258.750 235.228 C 257.154 237.046, 257 240.328, 257 272.500 C 257 304.636, 257.156 307.965, 258.750 309.868 C 261.106 312.682, 318.969 345.992, 321.500 345.992 C 324.031 345.992, 381.894 312.682, 384.250 309.868 C 385.844 307.965, 386 304.636, 386 272.500 C 386 240.334, 385.846 237.044, 384.250 235.211 C 382.316 232.989, 325.740 200.208, 322.519 199.443 C 321.409 199.179, 319.375 199.562, 318 200.293 M 629 261.154 C 625.975 262.879, 623.169 264.787, 622.765 265.395 C 622.361 266.003, 622.031 269.200, 622.031 272.500 C 622.031 275.800, 622.361 278.992, 622.765 279.594 C 623.169 280.196, 626.218 282.184, 629.539 284.012 L 635.578 287.335 641.539 283.852 L 647.500 280.369 647.500 272.497 L 647.500 264.625 642 261.317 C 638.975 259.497, 636.050 258.011, 635.500 258.014 C 634.950 258.016, 632.025 259.430, 629 261.154 M 375 345.521 C 364.825 351.395, 351.426 359.125, 345.225 362.698 C 337.549 367.122, 333.479 370.106, 332.475 372.048 C 331.257 374.404, 331 381.032, 331 410.105 L 331 445.310 334.802 448.905 C 336.893 450.882, 342.908 454.697, 348.170 457.383 C 356.370 461.568, 358.543 462.258, 363.385 462.215 C 369.726 462.158, 374.078 460.127, 377.395 455.678 C 379.443 452.932, 379.500 451.885, 379.500 417.178 L 379.500 381.500 374.500 381.500 L 369.500 381.500 369 414.598 C 368.607 440.610, 368.206 448.050, 367.128 449.348 C 364.597 452.394, 359.168 451.372, 350 446.124 L 341.500 441.257 341.236 409.796 C 340.993 380.782, 341.110 378.218, 342.736 376.832 C 344.664 375.189, 392.584 347.480, 395.301 346.438 C 396.410 346.012, 405.673 350.780, 422.738 360.560 C 436.907 368.681, 449.294 376.003, 450.264 376.830 C 451.890 378.218, 452.007 380.780, 451.764 409.739 L 451.500 441.143 424.081 457.026 C 409 465.762, 396.400 472.770, 396.081 472.599 C 395.761 472.429, 392.326 470.426, 388.447 468.148 L 381.393 464.006 376.197 466.201 C 373.339 467.409, 371 468.727, 371 469.130 C 371 470.100, 374.723 472.612, 384.820 478.457 C 390.736 481.881, 394.227 483.273, 396.899 483.273 C 399.927 483.273, 405.982 480.205, 428.078 467.475 C 443.160 458.787, 456.748 450.531, 458.272 449.130 C 459.797 447.729, 461.515 444.989, 462.090 443.042 C 462.753 440.793, 463.019 427.572, 462.817 406.821 C 462.518 375.962, 462.389 373.995, 460.500 371.493 C 457.458 367.462, 402.450 335.856, 397.500 335.295 C 393.874 334.884, 391.770 335.840, 375 345.521 M 405 379.630 C 392.301 382.075, 386 388.108, 386 397.820 C 386 407.142, 393.327 412.060, 410.781 414.453 C 416.986 415.303, 423.652 416.664, 425.596 417.476 C 428.721 418.782, 429.094 419.320, 428.815 422.127 C 428.267 427.649, 424.466 429.500, 413.677 429.500 C 400.800 429.500, 397.638 427.884, 395.480 420.201 C 394.897 418.127, 394.327 417.931, 389.676 418.201 C 383.784 418.543, 383.235 419.444, 384.976 425.910 C 387.485 435.227, 397.421 440.326, 413 440.293 C 427.251 440.262, 434.683 437.009, 438.815 428.992 C 441.599 423.591, 441.376 416.332, 438.298 412.176 C 435.483 408.373, 427.278 405.431, 414.127 403.508 C 399.627 401.388, 397.807 400.594, 398.200 396.567 C 398.611 392.360, 403.465 389.984, 411.500 390.058 C 420.621 390.141, 424.134 391.711, 426.474 396.750 C 428.388 400.870, 428.592 401, 433.165 401 C 435.759 401, 438.146 400.573, 438.468 400.051 C 438.791 399.530, 438.521 396.983, 437.869 394.393 C 436.382 388.488, 431.031 382.925, 425.142 381.161 C 420.410 379.743, 408.940 378.871, 405 379.630" stroke="none" fill="#48953c" fill-rule="evenodd"/></svg>