<svg xmlns="http://www.w3.org/2000/svg" width="300" height="298" viewBox="0 0 300 298" version="1.1"><path d="M 122.250 1.066 C 107.899 2.932, 92.860 8.672, 85.583 15.061 C 83.657 16.753, 80.927 20.494, 79.518 23.374 C 77 28.520, 76.960 28.952, 77.228 48.056 L 77.500 67.500 113.750 67.762 L 150 68.025 150 72.481 L 150 76.937 93.227 77.218 L 36.455 77.500 29.977 80.695 C 18.078 86.564, 10.144 96.441, 5.063 111.712 C 1.389 122.755, -0 132.803, 0 148.349 C 0 185.871, 10.335 210.708, 29.732 219.797 C 35.270 222.392, 36.159 222.500, 52 222.500 L 68.500 222.500 69.063 198.500 C 69.685 172.029, 70.125 169.781, 76.512 160.450 C 80.123 155.173, 83.132 152.535, 89 149.499 C 97.066 145.326, 100.773 145.024, 144.090 145.012 C 182.391 145.001, 186.299 144.842, 193.504 142.999 C 206.727 139.617, 215.750 132.216, 220.227 121.079 C 222.400 115.673, 222.479 114.246, 222.795 74.948 C 223.106 36.146, 223.032 34.161, 221.080 28.948 C 219.959 25.952, 217.594 21.746, 215.826 19.603 C 208.692 10.953, 193.503 4.069, 175.631 1.385 C 165.682 -0.109, 132.799 -0.305, 122.250 1.066 M 105.619 24.045 C 98.973 26.011, 94.932 33.233, 96.989 39.467 C 98.790 44.924, 103.184 48, 109.177 48 C 116.452 48, 121 43.452, 121 36.177 C 121 29.028, 117.649 25.172, 110 23.517 C 109.175 23.338, 107.204 23.576, 105.619 24.045" stroke="none" fill="#3473a5" fill-rule="evenodd"/><path d="M 230.988 96.669 C 230.976 119.690, 230.314 124.571, 226.081 132.849 C 220.738 143.302, 211.174 149.801, 198 151.933 C 194.248 152.540, 174.590 152.993, 151.500 153.004 C 120.784 153.019, 110.301 153.343, 106.336 154.399 C 90.683 158.566, 80.816 168.722, 78.089 183.474 C 77.430 187.039, 77 203.865, 77 226.069 C 77 269.156, 77.099 269.752, 85.810 279.162 C 97.446 291.730, 119.311 298, 151.500 298 C 181.907 298, 204.214 292.265, 215.020 281.670 C 222.426 274.408, 222.953 272.294, 222.978 249.750 L 223 230 186.500 230 L 150 230 150 225.500 L 150 221 203.750 220.988 C 262.008 220.975, 262.894 220.904, 272.989 215.409 C 283.631 209.617, 292.621 196.268, 297.173 179.500 C 299.079 172.481, 299.354 168.803, 299.422 149.500 C 299.502 126.820, 298.974 122.166, 294.822 109 C 290.442 95.109, 282.205 84.203, 271.695 78.379 C 266.603 75.557, 266.149 75.493, 248.750 75.169 L 231 74.838 230.988 96.669 M 185.449 250.551 C 176.840 254.800, 176.895 268.969, 185.534 272.579 C 190.178 274.519, 193.902 274.357, 197.686 272.050 C 201.726 269.587, 203.333 266.576, 203.333 261.474 C 203.333 252.104, 193.934 246.364, 185.449 250.551" stroke="none" fill="#fcd343" fill-rule="evenodd"/></svg>