<svg xmlns="http://www.w3.org/2000/svg" width="512" height="455" viewBox="0 0 512 455" version="1.1"><path d="" stroke="none" fill="#04d4fc" fill-rule="evenodd"/><path d="M 350.342 1.419 C 324.605 6.306, 293.891 23.735, 266.660 48.905 C 261.248 53.907, 256.614 58, 256.361 58 C 256.109 58, 250.610 53.276, 244.141 47.502 C 206.631 14.023, 178.175 0.132, 149.210 1.162 C 139.791 1.497, 137.714 1.913, 131.982 4.610 C 119.164 10.643, 109.623 23.148, 105.531 39.280 C 99.228 64.125, 99.846 92.541, 107.507 130.234 C 108.863 136.904, 109.866 142.459, 109.736 142.578 C 109.606 142.698, 104.206 144.444, 97.735 146.458 C 65.364 156.535, 31.193 175.439, 16.062 191.640 C -3.478 212.564, -4.696 235.072, 12.498 257.535 C 28.361 278.260, 56.498 295.659, 94 307.933 C 110.797 313.431, 109.446 311.031, 106.148 329.500 C 99.493 366.770, 99.434 398.356, 105.977 420.093 C 109.616 432.180, 119.214 444.440, 129 449.501 C 139.121 454.736, 155.746 455.522, 171.554 451.511 C 194.192 445.769, 226.655 426.280, 249.713 404.588 L 257.879 396.906 269.190 407.370 C 287.193 424.025, 302.746 435.337, 318.570 443.284 C 330.160 449.105, 338.096 451.692, 350.352 453.644 C 361.602 455.435, 371.798 454.510, 379.797 450.972 C 389.339 446.751, 400.454 434.530, 405.073 423.181 C 406.121 420.606, 408.378 413.100, 410.088 406.500 C 412.734 396.290, 413.278 392.071, 413.740 378.214 C 414.382 358.927, 413.198 347.318, 408.516 327 C 406.679 319.025, 405.473 312.209, 405.838 311.853 C 406.202 311.496, 412.125 309.522, 419 307.464 C 456.451 296.254, 484.980 278.717, 500.858 257.144 C 507.232 248.484, 508.831 245.215, 510.629 237.164 C 512.445 229.040, 513.419 220.200, 512.080 224 C 511.290 226.243, 511.187 226.089, 511.079 222.500 C 510.296 196.569, 471.081 163.885, 419.284 145.993 C 411.197 143.199, 404.429 140.763, 404.245 140.578 C 404.061 140.394, 404.828 135.576, 405.950 129.872 C 409.232 113.183, 412 88.811, 412 76.601 C 412 49.454, 402.911 24.466, 388.025 10.684 C 378.226 1.612, 365.633 -1.485, 350.342 1.419 M 145.344 15.118 C 132.361 17.447, 123.027 28.445, 117.860 47.500 C 116.006 54.341, 115.683 58.251, 115.634 74.500 C 115.602 84.950, 116.136 97.775, 116.819 103 C 118.481 115.709, 122.120 136.580, 122.885 137.797 C 123.266 138.403, 129.772 137.522, 140 135.481 C 157.617 131.965, 176.041 129.341, 190.240 128.326 L 198.979 127.702 207.344 116.601 C 218.455 101.855, 227.610 90.488, 238.379 78.068 C 245.821 69.484, 247.034 67.619, 245.879 66.531 C 226.952 48.716, 202.981 32.083, 183.049 22.934 C 168.844 16.414, 154.591 13.460, 145.344 15.118 M 346.576 15.957 C 330.873 19.377, 310.651 30.488, 291.764 46.072 C 281.379 54.642, 266.894 68.186, 267.207 69.035 C 267.368 69.472, 272.078 74.931, 277.673 81.165 C 288.713 93.465, 299.133 106.247, 308.393 118.851 L 314.286 126.871 320.393 127.401 C 344.996 129.534, 359.946 131.464, 374.354 134.368 L 390.998 137.723 391.978 134.082 C 395.234 121.988, 399.002 94.402, 398.995 82.699 C 398.990 73.378, 395.838 50.396, 393.429 42.107 C 392.542 39.056, 390.916 34.795, 389.815 32.638 C 386.934 26.990, 379.506 19.423, 374.432 16.967 C 368.132 13.917, 357.682 13.538, 346.576 15.957 M 245.354 91.192 C 233.291 104.598, 219.654 121.010, 217.885 124.250 C 216.982 125.903, 219.118 126, 256.524 126 C 287.918 126, 295.968 125.741, 295.394 124.750 C 291.772 118.492, 267.648 88.563, 259.075 79.692 C 257.400 77.958, 256.836 78.431, 245.354 91.192 M 206.781 140.683 C 202.875 141.709, 179.653 178.931, 164.768 208.024 L 155.636 225.874 160.270 235.187 C 167.790 250.297, 180.668 273, 191.338 289.956 C 194.641 295.205, 198.728 301.750, 200.422 304.500 C 202.115 307.250, 204.297 310.625, 205.269 312 L 207.037 314.500 247.268 314.838 C 269.396 315.023, 292.028 314.873, 297.562 314.504 L 307.624 313.833 317.744 297.667 C 330.949 276.572, 336.134 267.334, 347.189 245.207 L 356.329 226.914 354.600 223.207 C 349.663 212.629, 328.820 175.978, 316.664 156.500 L 307.302 141.500 300.901 140.867 C 293.666 140.151, 209.433 139.987, 206.781 140.683 M 169 143.578 C 162.125 144.323, 154.475 145.385, 152 145.938 C 149.525 146.490, 143.225 147.682, 138 148.587 C 132.775 149.492, 128.124 150.578, 127.665 151 C 127.206 151.423, 127.822 155.301, 129.033 159.618 C 131.736 169.252, 142.338 197.724, 145.701 204.381 L 148.167 209.262 153.471 199.881 C 164.416 180.522, 170.677 170.096, 179.670 156.250 L 188.926 142 185.213 142.111 C 183.171 142.172, 175.875 142.832, 169 143.578 M 325 142.738 C 325 142.959, 326.286 145.021, 327.857 147.320 C 333.592 155.712, 355 191.949, 355 193.265 C 355 193.558, 356.981 197.507, 359.402 202.038 L 363.805 210.278 365.573 206.889 C 368.806 200.693, 378.087 177.663, 382.197 165.637 C 385.262 156.668, 385.949 153.586, 385.011 153.007 C 381.341 150.739, 325 141.098, 325 142.738 M 99.500 158.544 C 58.866 172.441, 22.841 197.978, 17.382 216.757 C 15.113 224.563, 15.814 236.021, 18.957 242.500 C 21.977 248.727, 37.081 263.999, 46 269.845 C 62.245 280.494, 110.522 301.087, 112.911 298.387 C 113.342 297.899, 114.901 293.166, 116.374 287.869 C 119.260 277.486, 128.182 253.494, 135.020 237.722 L 139.260 227.944 135.077 217.722 C 128.221 200.967, 118.425 173.147, 115.895 163.250 C 114.595 158.162, 113.299 154.022, 113.015 154.049 C 112.732 154.076, 106.650 156.099, 99.500 158.544 M 397.945 161.250 C 394.584 173.870, 385.804 197.201, 376.708 217.682 L 372.186 227.865 376.680 237.682 C 383.622 252.845, 394.446 279.547, 397.583 289.250 C 399.139 294.063, 400.906 298, 401.510 298 C 406.924 298, 442.442 283.214, 458.071 274.453 C 474.997 264.965, 490.006 251.790, 494.969 242.060 C 499.780 232.630, 499.705 221.223, 494.768 211.545 C 487.762 197.813, 462.747 180.616, 431 167.708 C 418.612 162.671, 402.187 157, 399.987 157 C 399.487 157, 398.568 158.912, 397.945 161.250 M 248 178.983 C 236.878 181.087, 226.767 186.918, 219.611 195.356 C 203.209 214.697, 204.116 241.914, 221.758 259.781 C 231.662 269.811, 242.560 274.493, 256 274.493 C 269.366 274.493, 280.339 269.808, 290.084 259.942 C 299.703 250.203, 304.011 239.796, 303.988 226.356 C 303.945 201.156, 284.581 180.487, 259.277 178.629 C 255.550 178.355, 250.475 178.514, 248 178.983 M 0.252 226.500 C 0.263 228.700, 0.468 229.482, 0.707 228.238 C 0.946 226.994, 0.937 225.194, 0.687 224.238 C 0.437 223.282, 0.241 224.300, 0.252 226.500 M 359.476 252.584 C 352.852 264.864, 335.346 294.820, 329.167 304.449 C 326.361 308.822, 324.163 312.476, 324.283 312.569 C 324.839 313.006, 348.327 310.030, 355 308.677 C 359.125 307.841, 367.788 306.172, 374.250 304.970 C 383.611 303.228, 385.996 302.449, 385.982 301.142 C 385.932 296.684, 371.772 258.259, 366.118 247.239 L 364.286 243.668 359.476 252.584 M 144.013 253.232 C 138.110 268.092, 128.931 296.036, 128.713 299.809 L 128.500 303.500 137 305.126 C 158.358 309.212, 164.418 310.201, 175.275 311.373 C 183.272 312.236, 186.686 312.295, 186.242 311.563 C 185.887 310.978, 182.397 305.550, 178.486 299.500 C 169.317 285.316, 161.824 272.472, 153.983 257.500 C 150.526 250.900, 147.608 245.379, 147.498 245.232 C 147.387 245.084, 145.819 248.684, 144.013 253.232 M 388.500 315.751 C 387.400 315.962, 377.500 317.871, 366.500 319.995 C 355.500 322.119, 339.300 324.638, 330.500 325.594 L 314.500 327.332 308.500 335.873 C 298.111 350.662, 289.241 362.086, 277.942 375.228 C 271.924 382.228, 267 388.134, 267 388.352 C 267 388.949, 284.285 403.610, 291.853 409.432 C 307.426 421.412, 332.929 435.175, 346 438.655 C 349.738 439.650, 356.324 440.410, 361.500 440.443 C 369.408 440.493, 371.195 440.159, 376.224 437.689 C 382.708 434.505, 387.934 428.947, 391.470 421.473 C 397.831 408.026, 400.557 378.538, 397.569 355.500 C 396.066 343.916, 391.235 315.743, 390.705 315.473 C 390.592 315.415, 389.600 315.540, 388.500 315.751 M 123.442 317.385 C 122.408 320.328, 118.963 337.715, 117.376 348 C 114.888 364.124, 114.845 394.321, 117.294 406 C 119.790 417.911, 123.813 425.685, 130.849 432.200 C 137.959 438.782, 142.550 440.352, 154.094 440.149 C 178.780 439.715, 204.104 426.504, 236.850 396.978 L 248.201 386.743 240.292 378.622 C 229.978 368.030, 221.454 358.151, 210.443 344.029 C 197.807 327.822, 196.927 327, 192.193 327 C 185.766 327, 159.814 323.254, 141.167 319.635 C 129.238 317.319, 123.711 316.618, 123.442 317.385 M 221.452 335.103 C 231.762 349.374, 239.608 359.125, 250.688 371.438 L 256.031 377.375 260.117 373.438 C 266.592 367.197, 296 331.429, 296 329.793 C 296 329.632, 278.316 329.500, 256.702 329.500 L 217.404 329.500 221.452 335.103" stroke="none" fill="#04dcfc" fill-rule="evenodd"/></svg>